<svg xmlns="http://www.w3.org/2000/svg" viewBox="0 0 32 32" width="32" height="32">
  <defs>
    <linearGradient id="bookmarkGradient" x1="0%" y1="0%" x2="0%" y2="100%">
      <stop offset="0%" style="stop-color:#FF6B6B;stop-opacity:1" />
      <stop offset="100%" style="stop-color:#E53935;stop-opacity:1" />
    </linearGradient>
    <linearGradient id="shineGradient" x1="0%" y1="0%" x2="100%" y2="100%">
      <stop offset="0%" style="stop-color:#FFFFFF;stop-opacity:0.3" />
      <stop offset="50%" style="stop-color:#FFFFFF;stop-opacity:0" />
    </linearGradient>
    <filter id="innerShadow" x="-20%" y="-20%" width="140%" height="140%">
      <feGaussianBlur in="SourceAlpha" stdDeviation="1" result="blur"/>
      <feOffset in="blur" dx="0" dy="1" result="offsetBlur"/>
      <feComposite in="SourceGraphic" in2="offsetBlur" operator="over"/>
    </filter>
  </defs>
  <!-- Main bookmark shape with gradient -->
  <path d="M7 4C7 2.89543 7.89543 2 9 2H23C24.1046 2 25 2.89543 25 4V28.5C25 28.8746 24.7907 29.2178 24.4576 29.3892C24.1245 29.5606 23.7236 29.5315 23.4188 29.3137L16 23.3137L8.58124 29.3137C8.27642 29.5315 7.87549 29.5606 7.54239 29.3892C7.20929 29.2178 7 28.8746 7 28.5V4Z" fill="url(#bookmarkGradient)"/>
  <!-- Subtle shine overlay -->
  <path d="M7 4C7 2.89543 7.89543 2 9 2H23C24.1046 2 25 2.89543 25 4V28.5C25 28.8746 24.7907 29.2178 24.4576 29.3892C24.1245 29.5606 23.7236 29.5315 23.4188 29.3137L16 23.3137L8.58124 29.3137C8.27642 29.5315 7.87549 29.5606 7.54239 29.3892C7.20929 29.2178 7 28.8746 7 28.5V4Z" fill="url(#shineGradient)"/>
  <!-- Inner highlight line at top -->
  <path d="M8 4C8 3.44772 8.44772 3 9 3H23C23.5523 3 24 3.44772 24 4V5H8V4Z" fill="rgba(255,255,255,0.2)"/>
  <!-- Subtle edge definition -->
  <path d="M7 4C7 2.89543 7.89543 2 9 2H23C24.1046 2 25 2.89543 25 4V28.5C25 28.8746 24.7907 29.2178 24.4576 29.3892C24.1245 29.5606 23.7236 29.5315 23.4188 29.3137L16 23.3137L8.58124 29.3137C8.27642 29.5315 7.87549 29.5606 7.54239 29.3892C7.20929 29.2178 7 28.8746 7 28.5V4Z" fill="none" stroke="rgba(0,0,0,0.15)" stroke-width="0.5"/>
</svg>
