<svg version="1.2" xmlns="http://www.w3.org/2000/svg" viewBox="0 0 90 74" width="90" height="74">
	<style>
		.s0 { fill: #000000 } 
	</style>
	<path class="s0" d="m22.87 72.39c-1.55-1.65-0.66-4.19 1.77-5.03 1.81-0.64 1.65-2.04-0.92-8.23-1.9-4.55-1.76-4.48-5.31-2.77-3.17 1.53-5.07 3.3-6.21 5.82-1.85 4.04-5.61 4.44-7.18 0.76-1.84-4.31 2.07-10.25 9.01-13.7 1.71-0.85 3.17-1.71 3.25-1.92 0.48-1.25-1.86-3.27-4.39-3.78-7.34-1.47-9.52-3.03-10.76-7.69-0.91-3.4-0.44-4.99 1.65-5.55 0.65-0.17 1.02-0.6 1.42-1.6 0.29-0.76 1.17-2.11 1.95-3.02 1.42-1.65 1.42-1.65 1.31-4.62-0.16-4.28 0.89-5.12 3.31-2.65 1.55 1.59 1.76 1.6 1.76 0.07 0-1.53 0.46-1.99 1.94-1.99 1.49 0 2.79 1.31 7.85 7.95 3.07 4.01 8.88 7.62 13.83 8.6 2.89 0.57 5.55 0.1 14.1-2.51 3.59-1.1 7.41-1.24 9.87-0.38 3.53 1.23 6.83 0.32 8.06-2.23q1.65-3.39-1.71-7.72c-3.66-4.71-3.07-10.45 1.56-15.09 5.14-5.14 12.98-5.76 12.98-1.02 0 2.23-1.41 4-4.36 5.48-4.67 2.33-5.07 4.95-1.51 9.85 2.25 3.09 2.91 7.97 1.47 10.72-0.86 1.65-4.38 6.06-5.03 6.31-0.67 0.25-0.61 0.67 0.33 2.09 0.45 0.67 1.37 3.04 2.05 5.27 0.68 2.22 1.55 4.55 1.94 5.17 0.63 1.01 4.97 4.31 5.68 4.31 0.76 0 3.67 3.23 4.59 5.09 1.68 3.37 1.52 6.01-0.47 8.27-1.56 1.76-4.95 0.42-5.67-2.24-0.75-2.8-1.73-3.52-7.34-5.38-4.76-1.58-4.81-1.58-5.82 0.4-0.65 1.27-0.91 2.38-1.07 4.42-0.26 3.4-0.67 4.4-2.43 5.83-4.21 3.42-6.26 3.93-8.15 2.04-1.6-1.6-1.41-2.97 0.74-5.34 1.52-1.68 1.59-3.21 0.3-6.58-2.39-6.26-6.7-9.38-13.34-9.65-5.32-0.22-8.6 1.39-10.47 5.13-0.85 1.71-0.86 1.95-0.2 5.04 1 4.75 0.19 8.41-2.5 11.29-1.42 1.52-1.42 1.52-4.3 1.52-2.6 0-2.95-0.08-3.58-0.74z"/>
</svg>