<svg xmlns="http://www.w3.org/2000/svg" viewBox="-7 -9 412 412">
	<path fill="#000000" fill-rule="evenodd" d="M153.704 0.450 C 149.279 1.545,146.840 8.497,146.027 22.338 C 145.851 25.330,145.527 27.778,145.307 27.778 C 144.773 27.778,144.790 46.639,145.325 46.836 C 146.477 47.263,146.579 68.698,145.432 69.407 C 142.852 71.001,138.093 86.903,137.228 96.818 C 136.740 102.409,139.012 118.796,140.478 120.262 C 140.561 120.345,142.789 119.732,145.430 118.901 C 156.606 115.383,170.597 117.257,179.283 123.435 C 180.494 124.296,181.648 125.000,181.850 125.000 C 182.196 125.000,191.335 134.453,196.844 140.509 C 198.234 142.037,200.190 144.136,201.190 145.173 C 204.808 148.924,213.342 158.144,214.871 159.954 C 215.731 160.972,217.894 163.302,219.676 165.130 C 221.458 166.959,223.845 169.563,224.979 170.917 C 226.114 172.272,227.705 173.952,228.515 174.652 L 229.987 175.925 234.718 174.262 C 237.320 173.348,240.660 171.890,242.140 171.022 C 243.620 170.154,244.989 169.444,245.180 169.444 C 245.372 169.444,245.911 169.098,246.378 168.676 C 247.563 167.604,247.971 168.245,247.024 169.691 C 240.659 179.404,229.759 185.937,203.704 195.654 C 188.205 201.434,178.414 207.918,174.224 215.177 C 173.530 216.378,172.695 217.526,172.369 217.727 C 170.005 219.183,168.972 229.928,170.798 234.056 C 175.908 245.607,191.436 247.982,205.998 239.439 C 214.247 234.600,223.482 231.564,236.574 229.390 C 243.068 228.311,249.801 226.881,251.938 226.127 C 252.973 225.762,254.125 225.463,254.497 225.463 C 259.038 225.463,275.970 216.195,285.204 208.655 L 287.928 206.430 287.210 208.886 C 285.855 213.522,283.739 217.101,280.056 220.987 L 276.490 224.750 277.395 225.917 C 278.428 227.247,285.001 234.388,290.586 240.247 C 292.666 242.428,295.132 245.150,296.067 246.296 C 297.003 247.442,298.947 249.536,300.388 250.948 C 302.835 253.347,310.311 261.320,315.542 267.110 C 316.797 268.499,318.345 270.090,318.981 270.644 C 319.618 271.199,321.493 273.265,323.148 275.236 C 324.803 277.206,326.744 279.470,327.461 280.266 C 335.770 289.492,335.756 312.164,327.435 320.717 C 326.732 321.439,325.630 322.646,324.986 323.399 C 324.342 324.152,322.902 325.579,321.787 326.570 L 319.760 328.371 321.415 328.061 C 326.507 327.106,338.927 321.983,343.166 319.089 C 344.251 318.348,345.972 317.186,346.991 316.507 C 348.009 315.828,350.978 313.213,353.588 310.696 C 356.198 308.179,358.333 306.207,358.333 306.312 C 358.333 306.891,355.021 312.963,354.706 312.963 C 354.499 312.963,353.363 314.369,352.181 316.088 C 344.379 327.436,329.975 336.006,314.943 338.243 C 300.957 340.324,286.033 337.140,275.603 329.849 C 273.974 328.710,272.480 327.778,272.284 327.778 C 270.213 327.778,259.736 314.644,256.818 308.388 C 255.794 306.194,254.830 304.294,254.677 304.167 C 254.524 304.039,253.819 302.775,253.112 301.356 C 241.129 277.333,202.989 284.599,200.691 311.343 C 200.037 318.948,205.589 337.776,209.224 340.278 C 209.409 340.405,210.462 341.863,211.565 343.519 C 214.864 348.472,224.410 358.731,227.237 360.361 C 227.731 360.646,229.736 362.090,231.692 363.568 C 233.648 365.047,235.599 366.384,236.027 366.540 C 236.455 366.695,237.684 367.418,238.757 368.145 C 243.833 371.584,255.349 376.280,264.699 378.724 C 293.083 386.143,329.263 381.535,351.046 367.725 C 352.768 366.634,354.334 365.741,354.527 365.741 C 354.720 365.741,356.820 364.282,359.194 362.500 C 361.567 360.718,363.647 359.255,363.815 359.251 C 365.198 359.212,378.499 345.431,380.675 341.782 C 381.169 340.955,381.741 340.278,381.946 340.278 C 382.458 340.278,386.524 333.850,388.681 329.630 C 389.657 327.720,390.610 326.049,390.800 325.917 C 391.788 325.227,395.321 315.332,396.918 308.780 C 399.837 296.808,400.694 280.167,398.945 269.444 C 398.508 266.771,397.954 259.792,397.712 253.935 C 397.053 237.939,393.325 217.047,390.818 215.297 C 390.621 215.159,389.677 213.067,388.720 210.648 C 386.984 206.261,383.360 199.186,382.266 198.052 C 381.949 197.723,380.568 195.787,379.196 193.750 C 375.800 188.704,375.553 188.399,370.452 182.914 C 366.680 178.858,355.668 168.981,354.919 168.981 C 354.792 168.981,352.622 167.523,350.096 165.741 C 347.570 163.958,345.368 162.500,345.201 162.500 C 345.035 162.500,343.123 161.354,340.952 159.954 C 338.781 158.553,336.906 157.407,336.785 157.407 C 336.665 157.407,334.581 156.262,332.156 154.861 C 329.730 153.461,327.615 152.315,327.457 152.315 C 326.095 152.315,314.942 144.648,311.319 141.222 C 305.613 135.826,303.781 132.229,305.237 129.286 C 305.837 128.075,306.928 125.625,307.662 123.843 C 308.396 122.060,309.156 120.488,309.351 120.348 C 309.997 119.885,311.988 111.131,312.496 106.519 C 313.298 99.227,311.170 81.414,309.340 80.110 C 309.049 79.902,305.918 73.009,304.033 68.427 C 303.654 67.507,303.668 63.900,304.083 54.769 C 306.219 7.833,301.630 -5.499,286.126 2.595 C 279.766 5.914,274.119 10.523,261.990 22.290 C 249.295 34.607,251.028 33.523,245.758 32.445 C 232.556 29.745,216.891 29.745,203.755 32.445 L 199.408 33.339 197.042 31.155 C 195.741 29.954,191.827 26.099,188.345 22.588 C 184.863 19.076,181.866 16.204,181.686 16.204 C 181.505 16.204,179.837 14.760,177.979 12.994 C 176.121 11.229,174.013 9.413,173.296 8.957 C 172.578 8.502,170.428 6.944,168.519 5.495 C 163.174 1.441,157.505 -0.490,153.704 0.450 M197.712 80.449 C 213.315 87.801,207.877 110.413,190.509 110.401 C 176.213 110.391,168.791 94.333,178.310 84.006 C 183.202 78.699,190.973 77.274,197.712 80.449 M266.204 79.988 C 276.240 84.918,278.647 97.164,271.121 104.995 C 259.112 117.490,238.358 105.821,243.222 89.310 C 245.685 80.948,257.995 75.955,266.204 79.988 M151.620 126.414 C 148.385 127.216,144.621 128.626,140.420 130.609 C 131.738 134.708,130.556 135.317,130.556 135.694 C 130.556 136.348,136.154 146.296,136.522 146.296 C 136.712 146.296,137.464 147.546,138.194 149.074 C 139.827 152.490,139.876 152.492,145.876 149.493 C 159.401 142.733,162.295 143.921,179.247 163.194 C 181.873 166.181,187.038 171.733,190.278 175.054 C 191.678 176.489,194.387 179.422,196.296 181.571 C 201.751 187.709,200.662 187.450,208.409 184.450 C 212.060 183.036,216.192 181.461,217.593 180.949 C 221.241 179.616,221.353 179.371,219.213 177.417 C 218.194 176.487,216.770 174.990,216.047 174.090 C 214.702 172.414,204.483 161.446,201.157 158.108 C 200.139 157.086,197.970 154.792,196.339 153.009 C 176.928 131.806,174.979 130.083,167.483 127.490 C 163.689 126.177,154.963 125.585,151.620 126.414 M76.620 132.231 C 70.395 133.810,67.187 135.866,64.977 139.690 C 64.276 140.905,63.560 142.002,63.386 142.130 C 61.808 143.288,62.044 152.388,63.695 154.038 C 64.683 155.027,64.492 156.450,63.310 156.905 C 54.439 160.314,44.915 165.497,44.055 167.384 C 43.059 169.570,43.876 174.931,45.356 175.926 C 45.546 176.053,47.632 179.560,49.993 183.720 C 56.983 196.035,59.608 197.614,67.176 194.054 C 78.534 188.711,111.305 173.333,113.194 172.459 C 132.891 163.352,132.870 163.367,132.870 158.550 C 132.870 156.466,129.116 148.169,127.269 146.169 C 126.980 145.857,125.467 143.435,123.905 140.788 C 118.635 131.854,117.203 131.716,102.209 138.704 C 94.640 142.232,95.288 142.166,93.763 139.564 C 90.905 134.686,81.983 130.870,76.620 132.231 M37.037 180.078 C 36.145 180.584,29.420 183.838,20.602 188.030 C 3.438 196.190,-2.665 206.100,0.897 220.027 C 2.119 224.802,7.647 234.259,9.217 234.259 C 9.378 234.259,11.354 236.438,13.608 239.101 C 15.861 241.763,17.861 244.003,18.050 244.077 C 18.240 244.152,20.326 246.505,22.685 249.306 C 25.045 252.106,27.159 254.469,27.384 254.555 C 27.609 254.641,29.576 256.879,31.754 259.528 C 33.932 262.176,35.963 264.501,36.267 264.695 C 36.571 264.888,38.579 267.130,40.730 269.676 C 42.880 272.222,45.173 274.826,45.825 275.463 C 46.476 276.100,48.636 278.535,50.623 280.876 C 52.611 283.217,54.382 285.196,54.559 285.274 C 54.735 285.353,56.744 287.604,59.023 290.278 C 61.303 292.951,63.517 295.396,63.944 295.711 C 64.371 296.025,66.096 297.945,67.777 299.977 C 69.458 302.009,71.734 304.564,72.835 305.655 C 73.937 306.746,76.246 309.357,77.967 311.457 C 79.688 313.557,81.342 315.432,81.643 315.624 C 81.944 315.815,83.941 318.056,86.081 320.602 C 88.220 323.148,90.424 325.648,90.978 326.157 C 91.531 326.667,93.664 329.063,95.718 331.481 C 97.771 333.900,100.436 336.921,101.639 338.194 C 102.842 339.468,104.968 341.916,106.364 343.634 C 107.759 345.353,109.044 346.759,109.219 346.759 C 109.394 346.759,111.247 348.791,113.336 351.273 C 115.426 353.756,117.777 356.412,118.561 357.176 C 119.345 357.940,121.572 360.492,123.510 362.847 C 125.449 365.203,127.185 367.130,127.369 367.130 C 127.553 367.130,129.497 369.310,131.689 371.975 C 133.881 374.640,135.947 376.984,136.280 377.183 C 136.613 377.383,138.629 379.630,140.760 382.176 C 152.410 396.096,159.311 400.000,172.267 400.000 C 180.431 400.000,186.693 397.896,195.698 392.127 C 197.682 390.855,199.450 389.815,199.626 389.815 C 199.803 389.815,201.880 388.565,204.243 387.037 C 206.605 385.509,208.689 384.259,208.874 384.259 C 209.059 384.259,211.195 383.009,213.620 381.481 C 216.045 379.954,218.145 378.704,218.287 378.704 C 218.429 378.704,220.466 377.495,222.814 376.017 C 225.162 374.540,227.448 373.192,227.894 373.023 C 229.093 372.566,228.885 372.019,227.199 371.199 C 225.208 370.230,218.733 364.769,214.120 360.169 C 209.762 355.822,209.974 355.857,205.285 358.714 C 203.269 359.941,201.204 361.178,200.694 361.461 C 200.185 361.744,197.844 363.136,195.491 364.553 C 193.138 365.970,191.100 367.130,190.961 367.130 C 190.821 367.130,188.788 368.348,186.442 369.836 C 174.737 377.262,167.468 376.801,159.845 368.147 C 158.122 366.192,156.081 363.965,155.310 363.199 C 154.538 362.432,152.258 359.931,150.244 357.639 C 148.230 355.347,145.903 352.796,145.074 351.969 C 144.245 351.142,142.075 348.694,140.252 346.529 C 138.429 344.364,136.799 342.593,136.630 342.593 C 136.461 342.593,134.567 340.492,132.421 337.925 C 130.275 335.357,128.164 333.008,127.728 332.703 C 127.293 332.398,125.091 329.967,122.835 327.301 C 120.580 324.635,118.008 321.722,117.121 320.828 C 116.235 319.934,114.160 317.590,112.511 315.620 C 110.862 313.649,109.376 312.037,109.207 312.037 C 109.038 312.037,107.759 310.631,106.364 308.912 C 104.968 307.193,102.827 304.745,101.606 303.472 C 100.384 302.199,97.516 298.970,95.233 296.296 C 92.949 293.623,90.909 291.369,90.700 291.288 C 90.491 291.207,88.491 289.019,86.256 286.427 C 84.022 283.834,82.030 281.642,81.830 281.556 C 81.630 281.470,79.684 279.232,77.505 276.584 C 75.327 273.935,73.288 271.610,72.974 271.416 C 72.661 271.223,70.457 268.773,68.078 265.972 C 65.699 263.171,63.415 260.641,63.002 260.350 C 62.590 260.059,60.606 257.819,58.593 255.373 C 56.581 252.927,54.792 250.926,54.618 250.926 C 54.444 250.926,52.387 248.649,50.048 245.865 C 47.708 243.082,45.643 240.738,45.459 240.657 C 45.275 240.576,43.590 238.738,41.715 236.574 C 39.840 234.410,37.552 231.904,36.630 231.006 C 34.255 228.693,29.641 223.192,28.581 221.412 C 28.089 220.584,27.518 219.907,27.313 219.907 C 26.765 219.907,25.463 215.817,25.463 214.096 C 25.463 208.709,28.315 205.954,39.516 200.520 L 48.233 196.291 46.958 194.095 C 46.256 192.887,45.542 191.794,45.372 191.667 C 45.201 191.539,43.621 188.781,41.859 185.536 C 38.677 179.674,38.368 179.323,37.037 180.078 M266.204 230.623 C 262.709 232.181,256.487 234.231,252.199 235.237 L 248.130 236.193 250.107 238.569 C 251.194 239.876,253.125 242.013,254.398 243.318 C 256.884 245.867,263.883 253.436,268.284 258.333 C 269.771 259.988,271.923 262.280,273.067 263.426 C 274.210 264.572,276.594 267.228,278.363 269.329 C 280.133 271.429,281.735 273.148,281.922 273.148 C 282.109 273.148,283.629 274.763,285.299 276.736 C 286.970 278.709,289.198 281.157,290.251 282.176 C 296.192 287.920,298.591 292.183,298.590 296.991 C 298.589 303.422,296.106 305.868,281.663 313.667 C 280.108 314.507,277.867 315.797,276.685 316.533 L 274.534 317.871 276.040 319.272 C 280.402 323.327,287.090 326.794,293.865 328.513 C 299.825 330.025,300.125 329.985,304.577 327.075 C 306.713 325.679,308.647 324.537,308.875 324.537 C 309.738 324.537,315.618 320.324,318.200 317.855 C 326.831 309.604,327.300 292.769,319.143 284.015 C 318.200 283.004,316.217 280.782,314.735 279.079 C 313.254 277.376,311.037 274.980,309.809 273.755 C 308.580 272.530,306.365 270.174,304.887 268.519 C 303.408 266.863,300.610 263.818,298.669 261.751 C 296.727 259.684,292.951 255.635,290.278 252.754 C 287.604 249.873,284.167 246.231,282.639 244.661 C 277.765 239.652,269.689 230.936,269.306 230.272 C 268.846 229.475,268.759 229.485,266.204 230.623 "/>
</svg>
