<svg version="1.2" xmlns="http://www.w3.org/2000/svg" viewBox="0 0 267 168" width="267" height="168">
	<style>
		.s0 { fill: #000000 } 
	</style>
	<g id="svgg">
		<path id="path0" fill-rule="evenodd" class="s0" d="m246.68 1.89c-4.8 0.68-14.67 4.31-14.67 5.39 0 0.22-1.75 1.69-3.89 3.26-3.5 2.57-5.29 4.32-8.08 7.89-1.93 2.45-3.61 7.01-4.56 12.33-2.58 14.44-10.34 22.72-20.42 21.78-6.04-0.56-6.29-0.61-8.48-1.78q-4.01-2.15-11.8-3.31c-2.32-0.35-5.42-1.09-6.88-1.65-2.01-0.76-4.56-1-10.44-0.99-8.48 0.02-8.68 0.07-30.84 6.52-26.54 7.73-47.9-0.11-66.93-24.57-14.02-18.01-17.86-21.23-22.48-18.8-1.81 0.95-2.18 1.67-2.19 4.2-0.03 4.99-0.72 5.1-5.38 0.82-7.19-6.61-8.58-5.56-9 6.74-0.17 4.84-0.55 9.21-0.85 9.7-0.3 0.5-1.79 2.44-3.3 4.32-1.51 1.87-3.71 5.24-4.88 7.48-1.87 3.55-2.53 4.26-5.16 5.5-5 2.36-6.17 6.62-4.05 14.77 3.31 12.74 10.02 18.04 27.31 21.54 6.2 1.25 10.72 3.41 13.41 6.39 3.7 4.09 3.07 5.22-5.42 9.77-23.26 12.47-33.61 29.16-25.77 41.58 5.37 8.51 13.63 5.87 20.09-6.43 3.24-6.16 13.12-13.92 21.28-16.69 5.01-1.71 6.25-0.15 12.22 15.3 5.07 13.11 5.14 16.36 0.43 18.33-5.91 2.47-8.48 7.65-6.1 12.27 1.68 3.23 2.83 3.6 11.35 3.6h7.79l3.41-3.59c8.17-8.58 10.47-18.95 7.41-33.45-4.05-19.26 13.74-31.51 38.75-26.67 14.47 2.8 25.34 13.2 30.28 28.98 2.54 8.13 2.23 10.88-1.88 16.17-5.89 7.58-6.1 11.78-0.8 15.83 4.25 3.24 8.01 2.61 15.81-2.63 10.06-6.76 11.37-8.95 12.7-21.11 0.64-5.89 2.04-10.55 4.21-14.1 1.63-2.65 4.59-2.6 13.25 0.2 15.24 4.92 19.34 7.43 21.9 13.38 3.34 7.74 4.88 9.48 9.61 10.78 5.99 1.66 11.53-4.83 11.54-13.52 0.01-8.99-8.42-22.16-16.98-26.48-11.27-5.71-14.96-10.21-19.82-24.17-2.09-6.01-4.22-12.08-4.73-13.48-1.05-2.89-1.67-2.45 5.31-3.79 11.16-2.15 18.21-10.83 20.93-25.74 2.54-13.89 8.95-21.39 19.19-22.41 8.62-0.87 13.29-3 15.73-7.21 4.69-8.06-4.41-14.21-18.13-12.25z"/>
	</g>
</svg>