<svg version="1.2" xmlns="http://www.w3.org/2000/svg" viewBox="0 0 353 353" width="353" height="353">
	<style>
		.s0 { fill: #000000 } 
	</style>
	<g id="svgg">
	</g>
	<path id="path0" fill-rule="evenodd" class="s0" d="m117.65 44.06c-0.61 19.58-0.58 20.05 1.11 24.43 4.65 12.04 5.17 24.42 1.56 37.5-1.96 7.08-1.29 8.05 7.1 10.2 2.81 0.72 7.39 2.27 10.18 3.45 11.21 4.74 13.19 4.89 31.21 2.41 1.46-0.2 3.97-0.53 5.59-0.73 1.61-0.2 4.34-0.54 6.06-0.76 15.42-1.97 33.3-2.84 46.12-2.27 15.06 0.68 22.04 1.83 36.64 6.04 6.19 1.79 11.61-1.14 16.85-9.09 4.78-7.27 7.14-15.24 8.22-27.81 0.22-2.5 0.49-5.65 0.6-7.01 2.47-29.04 11.63-44.91 31.5-54.57 16.8-8.17 31.66-3.37 31.73 10.26 0.04 7.23-3.15 10.9-12.51 14.36-14.32 5.29-19.46 13.61-21.55 34.88-0.95 9.64-1.78 15.18-3.43 22.91-2.67 12.5-8.96 25.02-18.55 36.94-3.79 4.7-3.83 4.96-1.52 10.8 4.96 12.54 6.08 26.27 3.61 44.12-1.07 7.71-0.82 19.57 0.56 26.26 1.9 9.2 4.66 14.12 12.32 22.04 4.91 5.07 5.34 5.69 6.53 9.28 1.22 3.67 2.14 8.28 3.11 15.53 0.32 2.39 0.83 6.14 1.13 8.33 5.11 36.96 1.47 49.51-14.79 50.88-13.77 1.16-20.6-1.4-20.92-7.82-0.24-4.98 1.73-8.36 7.42-12.69 4.15-3.16 4.16-3.18 3.36-9.04-0.36-2.67-0.84-5.53-1.05-6.37-1.29-5.07-1.57-5.97-2.49-8.14-3.23-7.56-5.89-9.61-18.67-14.41-10.56-3.97-16.61-6.98-24.05-11.98l-1.89-1.28-0.13 1.02c-0.15 1.23 0.32 3.08 2.31 9.03 3.09 9.27 2.8 9.96-12.58 30-21.3 27.75-25.56 30.82-42.75 30.79-12.74-0.03-15.65-1.34-15.71-7.11-0.07-7.7 5.29-13.88 13.36-15.4 4.9-0.92 6.36-2.19 13.5-11.76 10.13-13.57 10.34-15.18 3.18-24.24-1.15-1.46-2.18-2.74-2.3-2.84-4.43-4.04-14.63-20.59-18.13-29.42-2.12-5.34-2.31-5.36-15.57-1.64-7.53 2.11-10.03 2.7-14.77 3.44-6.88 1.08-6.41 0.48-7.97 10.19-0.18 1.15-0.6 3.71-0.92 5.68-1.04 6.42-4.99 34.55-5.87 41.86-1.45 12.02-2.25 16.99-3.6 22.29-2.97 11.65-7.29 14.33-23.12 14.34-15.24 0.02-18.88-2.13-17.58-10.35 0.87-5.55 3.88-9.79 8.47-11.91 1.47-0.68 3.1-1.69 3.62-2.25l0.95-1.01-0.04-8.59c-0.07-16.18-2.03-34.38-5.06-47.03-1.03-4.31-3.77-8.33-5.68-8.33q-0.76 0.01-4.38 4.35c-6.82 8.19-13.38 14.19-30.49 27.85-10.8 8.63-11.69 9.74-14.56 18.18-5.41 15.89-15.09 26.78-25.21 28.32-13.83 2.12-13.95-11.53-0.38-41.77 4.23-9.4 5.87-12.22 16.1-27.65 10.05-15.15 10.24-15.58 10.22-23.29-0.02-6.02-0.66-8.17-4.95-16.73-5.52-10.99-7.21-17.57-9.06-35.36-1.78-17.22-3.1-24.84-5.64-32.82-2.96-9.25-6.64-14.47-15.57-22.1-8.3-7.09-11.73-11.49-14.76-18.94-2.56-6.29-4.02-19.26-2.83-25.26 1.12-5.66 1.72-8.04 2.94-11.67 1.57-4.69 1.74-8.49 0.92-20.22-0.69-9.8-0.62-23.19 0.12-26.75 0.33-1.57 0.69-3.31 0.8-3.87 0.79-4.01 4.66-5.07 9.68-2.64 4.56 2.21 6.6 3.71 23.72 17.59 4.1 3.32 4.05 3.31 9.06 2.2 8.68-1.92 17.97-1.78 27.07 0.42l3.3 0.8 1.43-0.98c0.79-0.54 2.28-1.77 3.32-2.73 10.63-9.75 17.9-15.53 22.67-17.98 9.58-4.93 12.57 2.08 11.78 27.64zm-88.54 48.52c2.5 1.29 7.45 1.31 10.01 0.05 9.07-4.47 8.96-17.66-0.17-21.68-13.95-6.15-23.42 14.65-9.84 21.63zm48.95-2.29c5.67 5.65 14.79 4.01 18.4-3.31 2.88-5.84 0.2-13.5-5.61-16.02-12.16-5.28-22.24 9.93-12.79 19.33z"/>
</svg>