<svg version="1.2" xmlns="http://www.w3.org/2000/svg" viewBox="0 0 90 90" width="90" height="90">
	<style>
		.s0 { fill: #000000 }
	</style>
	<path id="path0" fill-rule="evenodd" class="s0" d="m29.64 6.17c1.01 0.64 1.35 2.83 1.24 8.18-0.02 0.89-0.04 2.37-0.05 3.29l-0.01 1.66 0.22 0.68c0.13 0.37 0.28 0.91 0.35 1.19 0.06 0.28 0.18 0.79 0.27 1.13 0.49 2.1 0.57 4.57 0.21 6.73-0.34 2.03 0.07 2.82 1.7 3.28 0.16 0.04 0.36 0.1 0.44 0.13 0.72 0.22 3.72 0.21 7.83-0.03 0.7-0.04 1.96-0.1 2.81-0.14 0.85-0.04 1.71-0.08 1.91-0.1 0.2-0.01 0.7-0.03 1.11-0.05 0.41-0.01 1.2-0.05 1.74-0.08 5.91-0.3 10.53-0.15 12.85 0.42 0.15 0.04 0.71 0.16 1.23 0.27 0.95 0.21 1.52 0.38 3 0.93 0.44 0.16 0.88 0.32 0.98 0.36 0.38 0.13 0.86 0.09 1.23-0.11 0.55-0.3 1.19-0.69 1.35-0.83 0.09-0.07 0.23-0.19 0.31-0.26 2.23-1.73 3.18-4.17 3.43-8.77 0.33-6.07 2.17-9.93 6.05-12.66 3.81-2.69 7.84-2.83 9.51-0.32 1.44 2.16 0.42 4.66-2.31 5.67-1.23 0.46-1.38 0.52-1.77 0.73-2.56 1.37-3.39 3.12-3.62 7.59-0.01 0.32-0.04 0.68-0.05 0.8-0.01 0.12-0.03 0.42-0.05 0.68-0.07 1.15-0.58 3.85-0.89 4.79-0.33 0.99-1.26 3-1.72 3.72-0.07 0.12-0.21 0.34-0.3 0.48-0.1 0.15-0.25 0.38-0.35 0.51-1.22 1.66-1.48 1.98-2.84 3.36-1.19 1.22-1.36 1.6-1.08 2.35 0.05 0.13 0.13 0.36 0.18 0.51 1.12 3 1.27 7.22 0.4 11.6-1.34 6.8-1.34 7.98-0.03 10.86 0.12 0.27 0.35 0.78 0.51 1.14 1.04 2.27 1.23 3.19 1.07 5.27-0.46 6.14-1.16 11.5-1.72 13.18-0.69 2.06-2.44 3.03-5.46 3.03-3.1 0-4.48-0.95-4.48-3.07 0.01-1.42 0.76-2.64 2.13-3.48 0.68-0.42 0.68-0.43 0.65-3.95-0.04-3.96-0.08-4.14-1.09-4.7-1.06-0.59-1.85-1.13-2.85-1.95-0.55-0.46-0.7-0.45-0.86 0.08-0.05 0.17-0.24 0.77-0.42 1.35-0.32 1.02-0.65 1.97-1.17 3.33-0.15 0.38-0.35 0.93-0.45 1.23-0.48 1.42-1.56 3.76-2.37 5.11-1.73 2.91-2.55 3.6-4.62 3.91-3.58 0.55-6.03-0.15-6.43-1.83-0.47-1.99 0.63-3.59 2.87-4.21 0.71-0.19 0.99-0.32 1.14-0.49 0.4-0.48 1.28-2.63 1.64-4.06 0.1-0.36 0.26-0.94 0.36-1.29 0.56-1.84 0.42-2.28-1.13-3.54-1.36-1.1-1.88-1.6-2.95-2.83-0.76-0.87-1.11-1.38-2.04-2.95-0.72-1.21-0.61-1.18-3.79-1.1-5.52 0.15-6.61 0.38-7.24 1.5-0.31 0.55-0.8 2.11-1.05 3.35-0.07 0.33-0.22 1.06-0.34 1.62-0.21 0.97-0.33 1.68-0.49 2.7-0.04 0.27-0.12 0.76-0.19 1.09-0.06 0.34-0.25 1.4-0.41 2.37-0.16 0.97-0.33 2-0.39 2.28-0.22 1.16-0.34 1.82-0.48 2.72-0.35 2.28-0.73 3.82-1.16 4.7-0.84 1.72-2.57 2.49-5.42 2.41-2.93-0.08-4.19-1-4.18-3.06 0.01-1.38 0.44-2.16 1.82-3.27 0.74-0.6 0.75-0.61 0.79-1.67 0.01-0.43 0.05-1.08 0.07-1.42 0.27-3.55 0.41-10.33 0.25-11.49-0.19-1.44-0.37-1.68-1.51-1.98-1.2-0.32-1.21-0.32-1.44 2.83-0.25 3.24-0.47 5.91-0.61 7.45-0.07 0.74-0.11 1.23-0.24 2.85-0.2 2.53-0.33 3.41-0.7 4.76-0.52 1.88-1.65 2.83-3.93 3.29-1.58 0.33-3.25 0.17-4.39-0.41-2.35-1.19-2.11-4.31 0.46-5.83 0.87-0.52 0.87-0.43 0.51-5.1-0.19-2.44-0.19-2.42-0.44-4.76-0.39-3.65-1.39-8.49-2.19-10.64-0.25-0.69-0.97-2.19-1.4-2.92-0.73-1.23-0.84-1.46-1.32-2.67-0.33-0.84-0.4-1.06-0.7-2.2-0.49-1.92-0.89-4.61-1.23-8.37-0.21-2.29-0.27-2.87-0.37-3.31-0.46-2.18-0.63-2.53-2.42-4.86-0.62-0.81-0.98-1.33-1.21-1.75-0.29-0.5-0.75-1.4-0.84-1.66-0.05-0.14-0.11-0.27-0.13-0.29-0.19-0.28-0.64-2.01-0.81-3.15-0.33-2.21-0.03-5.23 0.75-7.6 0.39-1.19 0.42-1.57 0.3-4.3-0.27-6.24 0.12-9.46 1.18-9.98 0.79-0.38 1.62 0.02 3.96 1.91 0.33 0.26 0.78 0.62 0.99 0.8 0.21 0.17 0.59 0.49 0.85 0.71 1.49 1.32 2.29 1.96 2.77 2.23l0.28 0.16 1-0.15c0.55-0.09 1.11-0.18 1.24-0.2 1.26-0.24 3.14-0.24 5.73 0 1.74 0.16 1.72 0.17 2.68-0.57 1.72-1.32 2.65-2.06 3.02-2.38 2.55-2.26 3.94-2.98 4.76-2.47zm-7.55 14.28c-2.09 0.51-3.09 3.1-1.88 4.9 1.83 2.74 5.99 1.36 5.82-1.93-0.1-2.03-1.98-3.44-3.94-2.97zm-14.21 0.1c-3.37 1.39-2.51 6.27 1.1 6.24 3.36-0.02 4.37-4.56 1.35-6.11-0.63-0.32-1.83-0.39-2.45-0.13z"/>
</svg>
